name C:\Users\u0101727\Documents\MyRepositories\paper-ad\predictivesimulations_2d/Results/PredSim_2D/IK_c18.mot
datacolumns 11
datarows 34
range 1.27596516 1.59255802
endheader
time	pelvis_tilt	pelvis_tx	pelvis_ty	hip_flexion_l	hip_flexion_r	knee_angle_l	knee_angle_r	ankle_angle_l	ankle_angle_r	lumbar_extension	
          1.27596516	        -15.11718482	          1.69370572	          0.90062328	         33.20897682	         10.38396775	        -37.56384720	         -7.28965473	         15.70328235	         11.30718167	          9.43870084	
          1.28555888	        -15.11648382	          1.70569367	          0.89976401	         34.17743283	          9.60831690	        -36.09094628	         -7.33764158	         15.98890776	         11.31790419	          9.39884137	
          1.29515260	        -15.11685772	          1.71773720	          0.89884683	         35.08475385	          8.85031070	        -34.50141856	         -7.42135497	         16.19363544	         11.31633707	          9.36223726	
          1.30474633	        -15.11869761	          1.72984276	          0.89787059	         35.92747198	          8.10890523	        -32.80301524	         -7.53974296	         16.32658409	         11.30608988	          9.32919630	
          1.31434005	        -15.12232616	          1.74201850	          0.89683417	         36.70100243	          7.38374947	        -31.00719136	         -7.69308707	         16.39653361	         11.28798842	          9.30010449	
          1.32393377	        -15.12781373	          1.75427638	          0.89574020	         37.39862393	          6.67573957	        -29.14012448	         -7.88505127	         16.41162472	         11.26042878	          9.27555235	
          1.33352750	        -15.13518954	          1.76663465	          0.89460109	         38.00737849	          5.98690621	        -27.23603054	         -8.12187362	         16.37914238	         11.21738260	          9.25684295	
          1.34312122	        -15.14447588	          1.77911478	          0.89343852	         38.51148779	          5.32040288	        -25.32710881	         -8.41067052	         16.30547992	         11.14644084	          9.24569625	
          1.35271494	        -15.15535435	          1.79173556	          0.89227501	         38.90153457	          4.68063671	        -23.44118962	         -8.75990908	         16.19602618	         11.03132022	          9.24329866	
          1.36230867	        -15.16702842	          1.80451158	          0.89112856	         39.17739186	          4.07286646	        -21.60014237	         -9.17943714	         16.05490498	         10.85549248	          9.25005621	
          1.37190239	        -15.17828516	          1.81745568	          0.89001345	         39.34594718	          3.50237899	        -19.82558219	         -9.67957658	         15.88471469	         10.60468215	          9.26589710	
          1.38149611	        -15.18790435	          1.83058175	          0.88894186	         39.41441925	          2.97406030	        -18.13231136	        -10.27001039	         15.68664986	         10.26603996	          9.29091260	
          1.39108983	        -15.19474270	          1.84390423	          0.88792297	         39.38963247	          2.49234522	        -16.53211763	        -10.95930913	         15.46060563	          9.82741495	          9.32534143	
          1.40068356	        -15.19754572	          1.85743732	          0.88696205	         39.27918386	          2.06185023	        -15.04204853	        -11.75647147	         15.20529945	          9.27795572	          9.36932254	
          1.41027728	        -15.19505054	          1.87119543	          0.88606017	         39.08811481	          1.68809487	        -13.67665124	        -12.67178626	         14.91871385	          8.60668599	          9.42314837	
          1.41987100	        -15.18585296	          1.88519214	          0.88521303	         38.82120118	          1.37698816	        -12.45580022	        -13.71618054	         14.59796867	          7.80316524	          9.48707137	
          1.42946473	        -15.16839563	          1.89943922	          0.88440947	         38.48380367	          1.13418957	        -11.40829403	        -14.89986379	         14.23926320	          6.85988215	          9.56124097	
          1.43905845	        -15.14123712	          1.91394774	          0.88363041	         38.07625765	          0.96448847	        -10.56500270	        -16.23212507	         13.83823426	          5.77685048	          9.64624599	
          1.44865217	        -15.10318658	          1.92872597	          0.88284431	         37.59151801	          0.87080398	         -9.95957365	        -17.72593084	         13.38989511	          4.57641976	          9.74314820	
          1.45824590	        -15.05408894	          1.94376764	          0.88200732	         37.01159921	          0.85586586	         -9.64015897	        -19.38723366	         12.88944608	          3.27213500	          9.85309147	
          1.46783962	        -14.99650166	          1.95905571	          0.88114283	         36.26843634	          0.92691160	         -9.72731663	        -21.21290988	         12.33481611	          1.84398442	          9.98004883	
          1.47743334	        -14.93863689	          1.97440429	          0.88037778	         35.40517373	          1.08857562	        -10.04135671	        -23.18437567	         11.76534367	          0.37731468	         10.11459283	
          1.48702706	        -14.89146996	          1.98947265	          0.87994167	         34.54699707	          1.36771438	        -10.32133719	        -25.20919750	         11.21497664	         -0.90630752	         10.23347894	
          1.49662079	        -14.86356424	          2.00401367	          0.88009623	         33.73116060	          1.79259134	        -10.57939908	        -27.14714750	         10.68359361	         -1.90885109	         10.32279038	
          1.50621451	        -14.85726258	          2.01796436	          0.88099721	         32.96012122	          2.35911163	        -10.81041563	        -28.93559189	         10.18585614	         -2.65969268	         10.38138695	
          1.51580823	        -14.86787391	          2.03140799	          0.88260379	         32.21534992	          3.05049503	        -11.00239813	        -30.59525554	          9.73806037	         -3.16826341	         10.41541100	
          1.52540196	        -14.88880437	          2.04446880	          0.88470616	         31.47573076	          3.84619639	        -11.14643126	        -32.15525120	          9.35169972	         -3.44730993	         10.43188795	
          1.53499568	        -14.91469023	          2.05725427	          0.88707173	         30.72446030	          4.73065657	        -11.23570351	        -33.63316667	          9.03305185	         -3.51239492	         10.43613375	
          1.54458940	        -14.94209217	          2.06983867	          0.88951778	         29.95209320	          5.69184749	        -11.26830145	        -35.03747072	          8.78373409	         -3.37853424	         10.43134318	
          1.55418313	        -14.96911572	          2.08226896	          0.89192069	         29.15410601	          6.72075945	        -11.24467069	        -36.36947994	          8.60272201	         -3.06202893	         10.41927309	
          1.56377685	        -14.99479969	          2.09457521	          0.89420126	         28.32895425	          7.80999188	        -11.16681637	        -37.62608273	          8.48737480	         -2.57962160	         10.40093343	
          1.57337057	        -15.01865496	          2.10677772	          0.89630908	         27.47701208	          8.95336444	        -11.03822092	        -38.80240009	          8.43395400	         -1.94817375	         10.37693987	
          1.58296429	        -15.04041440	          2.11889157	          0.89821172	         26.59992966	         10.14532855	        -10.86373021	        -39.89234429	          8.43791871	         -1.18463097	         10.34774348	
          1.59255802	        -15.05990617	          2.13092917	          0.89988821	         25.70030064	         11.38052562	        -10.64937797	        -40.88914797	          8.49412397	         -0.30616274	         10.31375079	
